<mxfile host="Electron" agent="Mozilla/5.0 (Windows NT 10.0; Win64; x64) AppleWebKit/537.36 (KHTML, like Gecko) draw.io/28.2.5 Chrome/138.0.7204.251 Electron/37.6.1 Safari/537.36" version="28.2.5">
  <diagram name="Page-1" id="WnwAAiK6k-XNT4HfP98O">
    <mxGraphModel dx="2056" dy="1190" grid="1" gridSize="10" guides="1" tooltips="1" connect="1" arrows="1" fold="1" page="1" pageScale="1" pageWidth="850" pageHeight="1100" math="0" shadow="0">
      <root>
        <mxCell id="0" />
        <mxCell id="1" parent="0" />
        <mxCell id="F2shb6BZP4cMJl0DHBAz-1" value="User" style="rounded=1;arcSize=10;whiteSpace=wrap;html=1;align=center;labelBackgroundColor=none;fillColor=#B2C9AB;strokeColor=#788AA3;fontColor=#46495D;" vertex="1" parent="1">
          <mxGeometry x="900" y="360" width="100" height="40" as="geometry" />
        </mxCell>
        <mxCell id="F2shb6BZP4cMJl0DHBAz-2" value="Name" style="ellipse;whiteSpace=wrap;html=1;align=center;labelBackgroundColor=none;fillColor=#B2C9AB;strokeColor=#788AA3;fontColor=#46495D;" vertex="1" parent="1">
          <mxGeometry x="860" y="280" width="100" height="30" as="geometry" />
        </mxCell>
        <mxCell id="F2shb6BZP4cMJl0DHBAz-3" value="Id" style="ellipse;whiteSpace=wrap;html=1;align=center;fontStyle=4;labelBackgroundColor=none;fillColor=#B2C9AB;strokeColor=#788AA3;fontColor=#46495D;" vertex="1" parent="1">
          <mxGeometry x="750" y="320" width="90" height="30" as="geometry" />
        </mxCell>
        <mxCell id="F2shb6BZP4cMJl0DHBAz-4" value="Email" style="ellipse;whiteSpace=wrap;html=1;align=center;labelBackgroundColor=none;fillColor=#B2C9AB;strokeColor=#788AA3;fontColor=#46495D;" vertex="1" parent="1">
          <mxGeometry x="1000" y="310" width="100" height="30" as="geometry" />
        </mxCell>
        <mxCell id="F2shb6BZP4cMJl0DHBAz-5" value="Password" style="ellipse;whiteSpace=wrap;html=1;align=center;labelBackgroundColor=none;fillColor=#B2C9AB;strokeColor=#788AA3;fontColor=#46495D;" vertex="1" parent="1">
          <mxGeometry x="975" y="260" width="100" height="30" as="geometry" />
        </mxCell>
        <mxCell id="F2shb6BZP4cMJl0DHBAz-6" value="Role" style="ellipse;whiteSpace=wrap;html=1;align=center;labelBackgroundColor=none;fillColor=#B2C9AB;strokeColor=#788AA3;fontColor=#46495D;" vertex="1" parent="1">
          <mxGeometry x="760" y="260" width="100" height="30" as="geometry" />
        </mxCell>
        <mxCell id="F2shb6BZP4cMJl0DHBAz-9" value="" style="endArrow=none;html=1;rounded=0;exitX=1;exitY=1;exitDx=0;exitDy=0;entryX=0.25;entryY=0;entryDx=0;entryDy=0;labelBackgroundColor=none;strokeColor=#788AA3;fontColor=default;" edge="1" parent="1" source="F2shb6BZP4cMJl0DHBAz-3" target="F2shb6BZP4cMJl0DHBAz-1">
          <mxGeometry relative="1" as="geometry">
            <mxPoint x="750" y="470" as="sourcePoint" />
            <mxPoint x="910" y="470" as="targetPoint" />
          </mxGeometry>
        </mxCell>
        <mxCell id="F2shb6BZP4cMJl0DHBAz-10" value="" style="endArrow=none;html=1;rounded=0;exitX=0.5;exitY=1;exitDx=0;exitDy=0;entryX=0.5;entryY=0;entryDx=0;entryDy=0;labelBackgroundColor=none;strokeColor=#788AA3;fontColor=default;" edge="1" parent="1" source="F2shb6BZP4cMJl0DHBAz-2" target="F2shb6BZP4cMJl0DHBAz-1">
          <mxGeometry relative="1" as="geometry">
            <mxPoint x="940" y="330" as="sourcePoint" />
            <mxPoint x="1100" y="330" as="targetPoint" />
          </mxGeometry>
        </mxCell>
        <mxCell id="F2shb6BZP4cMJl0DHBAz-12" value="" style="endArrow=none;html=1;rounded=0;exitX=0.5;exitY=1;exitDx=0;exitDy=0;entryX=0.75;entryY=0;entryDx=0;entryDy=0;labelBackgroundColor=none;strokeColor=#788AA3;fontColor=default;" edge="1" parent="1" source="F2shb6BZP4cMJl0DHBAz-4" target="F2shb6BZP4cMJl0DHBAz-1">
          <mxGeometry relative="1" as="geometry">
            <mxPoint x="980" y="340" as="sourcePoint" />
            <mxPoint x="1140" y="340" as="targetPoint" />
          </mxGeometry>
        </mxCell>
        <mxCell id="F2shb6BZP4cMJl0DHBAz-13" value="" style="endArrow=none;html=1;rounded=0;entryX=0.5;entryY=1;entryDx=0;entryDy=0;exitX=0.5;exitY=0;exitDx=0;exitDy=0;labelBackgroundColor=none;strokeColor=#788AA3;fontColor=default;" edge="1" parent="1" source="F2shb6BZP4cMJl0DHBAz-1" target="F2shb6BZP4cMJl0DHBAz-5">
          <mxGeometry relative="1" as="geometry">
            <mxPoint x="960" y="320" as="sourcePoint" />
            <mxPoint x="1120" y="320" as="targetPoint" />
          </mxGeometry>
        </mxCell>
        <mxCell id="F2shb6BZP4cMJl0DHBAz-15" value="" style="endArrow=none;html=1;rounded=0;exitX=0.5;exitY=1;exitDx=0;exitDy=0;entryX=0.25;entryY=0;entryDx=0;entryDy=0;labelBackgroundColor=none;strokeColor=#788AA3;fontColor=default;" edge="1" parent="1" source="F2shb6BZP4cMJl0DHBAz-6" target="F2shb6BZP4cMJl0DHBAz-1">
          <mxGeometry relative="1" as="geometry">
            <mxPoint x="810" y="310" as="sourcePoint" />
            <mxPoint x="970" y="310" as="targetPoint" />
          </mxGeometry>
        </mxCell>
        <mxCell id="F2shb6BZP4cMJl0DHBAz-16" value="Client_Datails" style="rounded=1;arcSize=10;whiteSpace=wrap;html=1;align=center;labelBackgroundColor=none;fillColor=#B2C9AB;strokeColor=#788AA3;fontColor=#46495D;" vertex="1" parent="1">
          <mxGeometry x="1380" y="680" width="100" height="40" as="geometry" />
        </mxCell>
        <mxCell id="F2shb6BZP4cMJl0DHBAz-24" value="Buisness_Type" style="ellipse;whiteSpace=wrap;html=1;align=center;labelBackgroundColor=none;fillColor=#B2C9AB;strokeColor=#788AA3;fontColor=#46495D;" vertex="1" parent="1">
          <mxGeometry x="1460" y="600" width="100" height="30" as="geometry" />
        </mxCell>
        <mxCell id="F2shb6BZP4cMJl0DHBAz-25" value="Buisness_Name" style="ellipse;whiteSpace=wrap;html=1;align=center;labelBackgroundColor=none;fillColor=#B2C9AB;strokeColor=#788AA3;fontColor=#46495D;" vertex="1" parent="1">
          <mxGeometry x="1405" y="560" width="100" height="30" as="geometry" />
        </mxCell>
        <mxCell id="F2shb6BZP4cMJl0DHBAz-26" value="Name" style="ellipse;whiteSpace=wrap;html=1;align=center;labelBackgroundColor=none;fillColor=#B2C9AB;strokeColor=#788AA3;fontColor=#46495D;" vertex="1" parent="1">
          <mxGeometry x="1345" y="590" width="100" height="30" as="geometry" />
        </mxCell>
        <mxCell id="F2shb6BZP4cMJl0DHBAz-28" value="Address" style="ellipse;whiteSpace=wrap;html=1;align=center;labelBackgroundColor=none;fillColor=#B2C9AB;strokeColor=#788AA3;fontColor=#46495D;" vertex="1" parent="1">
          <mxGeometry x="1515" y="670" width="100" height="30" as="geometry" />
        </mxCell>
        <mxCell id="F2shb6BZP4cMJl0DHBAz-31" value="Client_Id" style="ellipse;whiteSpace=wrap;html=1;align=center;fontStyle=4;labelBackgroundColor=none;fillColor=#B2C9AB;strokeColor=#788AA3;fontColor=#46495D;" vertex="1" parent="1">
          <mxGeometry x="1280" y="560" width="100" height="30" as="geometry" />
        </mxCell>
        <mxCell id="F2shb6BZP4cMJl0DHBAz-32" value="Contact_Number" style="ellipse;shape=doubleEllipse;margin=3;whiteSpace=wrap;html=1;align=center;labelBackgroundColor=none;fillColor=#B2C9AB;strokeColor=#788AA3;fontColor=#46495D;" vertex="1" parent="1">
          <mxGeometry x="1445" y="760" width="110" height="40" as="geometry" />
        </mxCell>
        <mxCell id="F2shb6BZP4cMJl0DHBAz-33" value="Status" style="ellipse;whiteSpace=wrap;html=1;align=center;labelBackgroundColor=none;fillColor=#B2C9AB;strokeColor=#788AA3;fontColor=#46495D;" vertex="1" parent="1">
          <mxGeometry x="1505" y="720" width="100" height="30" as="geometry" />
        </mxCell>
        <mxCell id="F2shb6BZP4cMJl0DHBAz-34" value="Notes" style="ellipse;whiteSpace=wrap;html=1;align=center;labelBackgroundColor=none;fillColor=#B2C9AB;strokeColor=#788AA3;fontColor=#46495D;" vertex="1" parent="1">
          <mxGeometry x="1525" y="630" width="100" height="30" as="geometry" />
        </mxCell>
        <mxCell id="F2shb6BZP4cMJl0DHBAz-35" value="" style="endArrow=none;html=1;rounded=0;exitX=0.5;exitY=1;exitDx=0;exitDy=0;entryX=0;entryY=0.25;entryDx=0;entryDy=0;labelBackgroundColor=none;strokeColor=#788AA3;fontColor=default;" edge="1" parent="1" source="F2shb6BZP4cMJl0DHBAz-31" target="F2shb6BZP4cMJl0DHBAz-16">
          <mxGeometry relative="1" as="geometry">
            <mxPoint x="1320" y="680" as="sourcePoint" />
            <mxPoint x="1380" y="680" as="targetPoint" />
            <Array as="points">
              <mxPoint x="1355" y="640" />
            </Array>
          </mxGeometry>
        </mxCell>
        <mxCell id="F2shb6BZP4cMJl0DHBAz-36" value="" style="endArrow=none;html=1;rounded=0;exitX=0.5;exitY=1;exitDx=0;exitDy=0;entryX=0.25;entryY=0;entryDx=0;entryDy=0;labelBackgroundColor=none;strokeColor=#788AA3;fontColor=default;" edge="1" parent="1" source="F2shb6BZP4cMJl0DHBAz-26" target="F2shb6BZP4cMJl0DHBAz-16">
          <mxGeometry relative="1" as="geometry">
            <mxPoint x="1390" y="640" as="sourcePoint" />
            <mxPoint x="1550" y="640" as="targetPoint" />
          </mxGeometry>
        </mxCell>
        <mxCell id="F2shb6BZP4cMJl0DHBAz-37" value="" style="endArrow=none;html=1;rounded=0;entryX=0.5;entryY=1;entryDx=0;entryDy=0;exitX=0.5;exitY=0;exitDx=0;exitDy=0;labelBackgroundColor=none;strokeColor=#788AA3;fontColor=default;" edge="1" parent="1" source="F2shb6BZP4cMJl0DHBAz-16" target="F2shb6BZP4cMJl0DHBAz-25">
          <mxGeometry relative="1" as="geometry">
            <mxPoint x="1440" y="670" as="sourcePoint" />
            <mxPoint x="1600" y="670" as="targetPoint" />
          </mxGeometry>
        </mxCell>
        <mxCell id="F2shb6BZP4cMJl0DHBAz-38" value="" style="endArrow=none;html=1;rounded=0;exitX=0.5;exitY=1;exitDx=0;exitDy=0;entryX=0.75;entryY=0;entryDx=0;entryDy=0;labelBackgroundColor=none;strokeColor=#788AA3;fontColor=default;" edge="1" parent="1" source="F2shb6BZP4cMJl0DHBAz-24" target="F2shb6BZP4cMJl0DHBAz-16">
          <mxGeometry relative="1" as="geometry">
            <mxPoint x="1470" y="660" as="sourcePoint" />
            <mxPoint x="1630" y="660" as="targetPoint" />
          </mxGeometry>
        </mxCell>
        <mxCell id="F2shb6BZP4cMJl0DHBAz-39" value="" style="endArrow=none;html=1;rounded=0;exitX=0.5;exitY=0;exitDx=0;exitDy=0;entryX=0.5;entryY=1;entryDx=0;entryDy=0;labelBackgroundColor=none;strokeColor=#788AA3;fontColor=default;" edge="1" parent="1" source="F2shb6BZP4cMJl0DHBAz-32" target="F2shb6BZP4cMJl0DHBAz-16">
          <mxGeometry relative="1" as="geometry">
            <mxPoint x="1320" y="710" as="sourcePoint" />
            <mxPoint x="1410" y="720" as="targetPoint" />
          </mxGeometry>
        </mxCell>
        <mxCell id="F2shb6BZP4cMJl0DHBAz-40" style="edgeStyle=orthogonalEdgeStyle;rounded=0;orthogonalLoop=1;jettySize=auto;html=1;exitX=0.5;exitY=1;exitDx=0;exitDy=0;labelBackgroundColor=none;strokeColor=#788AA3;fontColor=default;" edge="1" parent="1" source="F2shb6BZP4cMJl0DHBAz-28" target="F2shb6BZP4cMJl0DHBAz-28">
          <mxGeometry relative="1" as="geometry" />
        </mxCell>
        <mxCell id="F2shb6BZP4cMJl0DHBAz-42" value="" style="endArrow=none;html=1;rounded=0;exitX=0.5;exitY=0;exitDx=0;exitDy=0;entryX=0.75;entryY=1;entryDx=0;entryDy=0;labelBackgroundColor=none;strokeColor=#788AA3;fontColor=default;" edge="1" parent="1" source="F2shb6BZP4cMJl0DHBAz-33" target="F2shb6BZP4cMJl0DHBAz-16">
          <mxGeometry relative="1" as="geometry">
            <mxPoint x="1510" y="750" as="sourcePoint" />
            <mxPoint x="1670" y="750" as="targetPoint" />
          </mxGeometry>
        </mxCell>
        <mxCell id="F2shb6BZP4cMJl0DHBAz-44" value="Influencer_Datails" style="rounded=1;arcSize=10;whiteSpace=wrap;html=1;align=center;labelBackgroundColor=none;fillColor=#B2C9AB;strokeColor=#788AA3;fontColor=#46495D;" vertex="1" parent="1">
          <mxGeometry x="1300" y="185" width="110" height="40" as="geometry" />
        </mxCell>
        <mxCell id="F2shb6BZP4cMJl0DHBAz-46" value="Package_Name" style="ellipse;whiteSpace=wrap;html=1;align=center;labelBackgroundColor=none;fillColor=#B2C9AB;strokeColor=#788AA3;fontColor=#46495D;" vertex="1" parent="1">
          <mxGeometry x="430" y="20" width="100" height="30" as="geometry" />
        </mxCell>
        <mxCell id="F2shb6BZP4cMJl0DHBAz-47" value="Content_Type" style="ellipse;whiteSpace=wrap;html=1;align=center;labelBackgroundColor=none;fillColor=#B2C9AB;strokeColor=#788AA3;fontColor=#46495D;" vertex="1" parent="1">
          <mxGeometry x="1260" y="90" width="110" height="30" as="geometry" />
        </mxCell>
        <mxCell id="F2shb6BZP4cMJl0DHBAz-48" value="Platform" style="ellipse;whiteSpace=wrap;html=1;align=center;labelBackgroundColor=none;fillColor=#B2C9AB;strokeColor=#788AA3;fontColor=#46495D;" vertex="1" parent="1">
          <mxGeometry x="1330" y="60" width="100" height="30" as="geometry" />
        </mxCell>
        <mxCell id="F2shb6BZP4cMJl0DHBAz-49" value="Availability_Status" style="ellipse;whiteSpace=wrap;html=1;align=center;labelBackgroundColor=none;fillColor=#B2C9AB;strokeColor=#788AA3;fontColor=#46495D;" vertex="1" parent="1">
          <mxGeometry x="1400" y="90" width="110" height="30" as="geometry" />
        </mxCell>
        <mxCell id="F2shb6BZP4cMJl0DHBAz-50" value="Pricing_Package" style="ellipse;whiteSpace=wrap;html=1;align=center;labelBackgroundColor=none;fillColor=#B2C9AB;strokeColor=#788AA3;fontColor=#46495D;" vertex="1" parent="1">
          <mxGeometry x="1430" y="130" width="110" height="30" as="geometry" />
        </mxCell>
        <mxCell id="F2shb6BZP4cMJl0DHBAz-51" value="Platform" style="ellipse;whiteSpace=wrap;html=1;align=center;labelBackgroundColor=none;fillColor=#B2C9AB;strokeColor=#788AA3;fontColor=#46495D;" vertex="1" parent="1">
          <mxGeometry x="355" y="780" width="100" height="30" as="geometry" />
        </mxCell>
        <mxCell id="F2shb6BZP4cMJl0DHBAz-52" value="Objective" style="ellipse;whiteSpace=wrap;html=1;align=center;direction=west;labelBackgroundColor=none;fillColor=#B2C9AB;strokeColor=#788AA3;fontColor=#46495D;" vertex="1" parent="1">
          <mxGeometry x="545" y="855" width="100" height="30" as="geometry" />
        </mxCell>
        <mxCell id="F2shb6BZP4cMJl0DHBAz-53" value="Followers_Count" style="ellipse;whiteSpace=wrap;html=1;align=center;labelBackgroundColor=none;fillColor=#B2C9AB;strokeColor=#788AA3;fontColor=#46495D;" vertex="1" parent="1">
          <mxGeometry x="1140" y="170" width="110" height="30" as="geometry" />
        </mxCell>
        <mxCell id="F2shb6BZP4cMJl0DHBAz-54" value="Influencer_Id" style="ellipse;whiteSpace=wrap;html=1;align=center;fontStyle=4;labelBackgroundColor=none;fillColor=#B2C9AB;strokeColor=#788AA3;fontColor=#46495D;" vertex="1" parent="1">
          <mxGeometry x="1190" y="120" width="100" height="30" as="geometry" />
        </mxCell>
        <mxCell id="F2shb6BZP4cMJl0DHBAz-56" value="" style="endArrow=none;html=1;rounded=0;exitX=0.5;exitY=1;exitDx=0;exitDy=0;entryX=0.25;entryY=0;entryDx=0;entryDy=0;labelBackgroundColor=none;strokeColor=#788AA3;fontColor=default;" edge="1" parent="1" source="F2shb6BZP4cMJl0DHBAz-54" target="F2shb6BZP4cMJl0DHBAz-44">
          <mxGeometry relative="1" as="geometry">
            <mxPoint x="1290" y="160" as="sourcePoint" />
            <mxPoint x="1450" y="160" as="targetPoint" />
          </mxGeometry>
        </mxCell>
        <mxCell id="F2shb6BZP4cMJl0DHBAz-58" value="" style="endArrow=none;html=1;rounded=0;exitX=0.5;exitY=1;exitDx=0;exitDy=0;entryX=0.5;entryY=0;entryDx=0;entryDy=0;labelBackgroundColor=none;strokeColor=#788AA3;fontColor=default;" edge="1" parent="1" source="F2shb6BZP4cMJl0DHBAz-47" target="F2shb6BZP4cMJl0DHBAz-44">
          <mxGeometry relative="1" as="geometry">
            <mxPoint x="1350" y="150" as="sourcePoint" />
            <mxPoint x="1510" y="150" as="targetPoint" />
          </mxGeometry>
        </mxCell>
        <mxCell id="F2shb6BZP4cMJl0DHBAz-60" value="" style="endArrow=none;html=1;rounded=0;exitX=0.5;exitY=1;exitDx=0;exitDy=0;entryX=0.75;entryY=0;entryDx=0;entryDy=0;labelBackgroundColor=none;strokeColor=#788AA3;fontColor=default;" edge="1" parent="1" source="F2shb6BZP4cMJl0DHBAz-48" target="F2shb6BZP4cMJl0DHBAz-44">
          <mxGeometry relative="1" as="geometry">
            <mxPoint x="1400" y="180" as="sourcePoint" />
            <mxPoint x="1560" y="180" as="targetPoint" />
          </mxGeometry>
        </mxCell>
        <mxCell id="F2shb6BZP4cMJl0DHBAz-61" value="" style="endArrow=none;html=1;rounded=0;exitX=1;exitY=1;exitDx=0;exitDy=0;entryX=0;entryY=0.5;entryDx=0;entryDy=0;labelBackgroundColor=none;strokeColor=#788AA3;fontColor=default;" edge="1" parent="1" source="F2shb6BZP4cMJl0DHBAz-53" target="F2shb6BZP4cMJl0DHBAz-44">
          <mxGeometry relative="1" as="geometry">
            <mxPoint x="1250" y="195" as="sourcePoint" />
            <mxPoint x="1440" y="230" as="targetPoint" />
          </mxGeometry>
        </mxCell>
        <mxCell id="F2shb6BZP4cMJl0DHBAz-65" value="Caption" style="ellipse;whiteSpace=wrap;html=1;align=center;labelBackgroundColor=none;fillColor=#B2C9AB;strokeColor=#788AA3;fontColor=#46495D;" vertex="1" parent="1">
          <mxGeometry x="1204.6799999999998" y="740" width="100" height="30" as="geometry" />
        </mxCell>
        <mxCell id="F2shb6BZP4cMJl0DHBAz-67" value="Start_Date" style="ellipse;whiteSpace=wrap;html=1;align=center;labelBackgroundColor=none;fillColor=#B2C9AB;strokeColor=#788AA3;fontColor=#46495D;" vertex="1" parent="1">
          <mxGeometry x="390" y="910" width="90" height="30" as="geometry" />
        </mxCell>
        <mxCell id="F2shb6BZP4cMJl0DHBAz-68" value="Name" style="ellipse;whiteSpace=wrap;html=1;align=center;labelBackgroundColor=none;fillColor=#B2C9AB;strokeColor=#788AA3;fontColor=#46495D;" vertex="1" parent="1">
          <mxGeometry x="590" y="825" width="100" height="30" as="geometry" />
        </mxCell>
        <mxCell id="F2shb6BZP4cMJl0DHBAz-69" value="Campaign" style="rounded=1;arcSize=10;whiteSpace=wrap;html=1;align=center;labelBackgroundColor=none;fillColor=#B2C9AB;strokeColor=#788AA3;fontColor=#46495D;" vertex="1" parent="1">
          <mxGeometry x="525" y="755" width="100" height="40" as="geometry" />
        </mxCell>
        <mxCell id="F2shb6BZP4cMJl0DHBAz-70" value="Campaign_Id" style="ellipse;whiteSpace=wrap;html=1;align=center;fontStyle=4;labelBackgroundColor=none;fillColor=#B2C9AB;strokeColor=#788AA3;fontColor=#46495D;" vertex="1" parent="1">
          <mxGeometry x="247.5" y="680" width="100" height="30" as="geometry" />
        </mxCell>
        <mxCell id="F2shb6BZP4cMJl0DHBAz-72" value="Budget" style="ellipse;whiteSpace=wrap;html=1;align=center;labelBackgroundColor=none;fillColor=#B2C9AB;strokeColor=#788AA3;fontColor=#46495D;" vertex="1" parent="1">
          <mxGeometry x="350" y="690" width="100" height="30" as="geometry" />
        </mxCell>
        <mxCell id="F2shb6BZP4cMJl0DHBAz-73" value="End_Date" style="ellipse;whiteSpace=wrap;html=1;align=center;labelBackgroundColor=none;fillColor=#B2C9AB;strokeColor=#788AA3;fontColor=#46495D;" vertex="1" parent="1">
          <mxGeometry x="465" y="885" width="100" height="30" as="geometry" />
        </mxCell>
        <mxCell id="F2shb6BZP4cMJl0DHBAz-74" value="Start_Date" style="ellipse;whiteSpace=wrap;html=1;align=center;labelBackgroundColor=none;fillColor=#B2C9AB;strokeColor=#788AA3;fontColor=#46495D;" vertex="1" parent="1">
          <mxGeometry x="500" y="100" width="100" height="30" as="geometry" />
        </mxCell>
        <mxCell id="F2shb6BZP4cMJl0DHBAz-75" value="Stutus" style="ellipse;whiteSpace=wrap;html=1;align=center;labelBackgroundColor=none;fillColor=#B2C9AB;strokeColor=#788AA3;fontColor=#46495D;" vertex="1" parent="1">
          <mxGeometry x="400" y="820" width="100" height="30" as="geometry" />
        </mxCell>
        <mxCell id="F2shb6BZP4cMJl0DHBAz-76" value="Type" style="ellipse;whiteSpace=wrap;html=1;align=center;labelBackgroundColor=none;fillColor=#B2C9AB;strokeColor=#788AA3;fontColor=#46495D;" vertex="1" parent="1">
          <mxGeometry x="255" y="745" width="100" height="30" as="geometry" />
        </mxCell>
        <mxCell id="F2shb6BZP4cMJl0DHBAz-80" value="" style="endArrow=none;html=1;rounded=0;exitX=1;exitY=0.5;exitDx=0;exitDy=0;entryX=0;entryY=0.5;entryDx=0;entryDy=0;labelBackgroundColor=none;strokeColor=#788AA3;fontColor=default;" edge="1" parent="1" source="F2shb6BZP4cMJl0DHBAz-72" target="F2shb6BZP4cMJl0DHBAz-69">
          <mxGeometry relative="1" as="geometry">
            <mxPoint x="425" y="800" as="sourcePoint" />
            <mxPoint x="585" y="800" as="targetPoint" />
          </mxGeometry>
        </mxCell>
        <mxCell id="F2shb6BZP4cMJl0DHBAz-81" value="" style="endArrow=none;html=1;rounded=0;exitX=1;exitY=0.5;exitDx=0;exitDy=0;entryX=0;entryY=0.75;entryDx=0;entryDy=0;labelBackgroundColor=none;strokeColor=#788AA3;fontColor=default;" edge="1" parent="1" source="F2shb6BZP4cMJl0DHBAz-76" target="F2shb6BZP4cMJl0DHBAz-69">
          <mxGeometry relative="1" as="geometry">
            <mxPoint x="495" y="810" as="sourcePoint" />
            <mxPoint x="655" y="810" as="targetPoint" />
          </mxGeometry>
        </mxCell>
        <mxCell id="F2shb6BZP4cMJl0DHBAz-83" value="" style="endArrow=none;html=1;rounded=0;entryX=0.25;entryY=1;entryDx=0;entryDy=0;exitX=0.5;exitY=0;exitDx=0;exitDy=0;labelBackgroundColor=none;strokeColor=#788AA3;fontColor=default;" edge="1" parent="1" source="F2shb6BZP4cMJl0DHBAz-75" target="F2shb6BZP4cMJl0DHBAz-69">
          <mxGeometry relative="1" as="geometry">
            <mxPoint x="395" y="880" as="sourcePoint" />
            <mxPoint x="555" y="880" as="targetPoint" />
          </mxGeometry>
        </mxCell>
        <mxCell id="F2shb6BZP4cMJl0DHBAz-85" value="" style="endArrow=none;html=1;rounded=0;exitX=0.5;exitY=1;exitDx=0;exitDy=0;entryX=0.5;entryY=0;entryDx=0;entryDy=0;labelBackgroundColor=none;strokeColor=#788AA3;fontColor=default;" edge="1" parent="1" source="F2shb6BZP4cMJl0DHBAz-69" target="F2shb6BZP4cMJl0DHBAz-73">
          <mxGeometry relative="1" as="geometry">
            <mxPoint x="585" y="810" as="sourcePoint" />
            <mxPoint x="745" y="810" as="targetPoint" />
          </mxGeometry>
        </mxCell>
        <mxCell id="F2shb6BZP4cMJl0DHBAz-86" value="Engagement_Rate" style="ellipse;whiteSpace=wrap;html=1;align=center;labelBackgroundColor=none;fillColor=#B2C9AB;strokeColor=#788AA3;fontColor=#46495D;" vertex="1" parent="1">
          <mxGeometry x="967.5" y="990" width="115" height="30" as="geometry" />
        </mxCell>
        <mxCell id="F2shb6BZP4cMJl0DHBAz-87" value="Payment_Type" style="ellipse;whiteSpace=wrap;html=1;align=center;labelBackgroundColor=none;fillColor=#B2C9AB;strokeColor=#788AA3;fontColor=#46495D;" vertex="1" parent="1">
          <mxGeometry x="175" y="200" width="100" height="30" as="geometry" />
        </mxCell>
        <mxCell id="F2shb6BZP4cMJl0DHBAz-88" value="Status" style="ellipse;whiteSpace=wrap;html=1;align=center;labelBackgroundColor=none;fillColor=#B2C9AB;strokeColor=#788AA3;fontColor=#46495D;" vertex="1" parent="1">
          <mxGeometry x="1325" y="815" width="100" height="30" as="geometry" />
        </mxCell>
        <mxCell id="F2shb6BZP4cMJl0DHBAz-89" value="Platform" style="ellipse;whiteSpace=wrap;html=1;align=center;labelBackgroundColor=none;fillColor=#B2C9AB;strokeColor=#788AA3;fontColor=#46495D;" vertex="1" parent="1">
          <mxGeometry x="1289.6799999999998" y="775" width="100" height="30" as="geometry" />
        </mxCell>
        <mxCell id="F2shb6BZP4cMJl0DHBAz-90" value="Scheduled_Date" style="ellipse;whiteSpace=wrap;html=1;align=center;labelBackgroundColor=none;fillColor=#B2C9AB;strokeColor=#788AA3;fontColor=#46495D;" vertex="1" parent="1">
          <mxGeometry x="1350" y="860" width="110" height="30" as="geometry" />
        </mxCell>
        <mxCell id="F2shb6BZP4cMJl0DHBAz-91" value="Media_URL" style="ellipse;whiteSpace=wrap;html=1;align=center;labelBackgroundColor=none;fillColor=#B2C9AB;strokeColor=#788AA3;fontColor=#46495D;" vertex="1" parent="1">
          <mxGeometry x="1310" y="900" width="100" height="30" as="geometry" />
        </mxCell>
        <mxCell id="F2shb6BZP4cMJl0DHBAz-92" value="Post" style="rounded=1;arcSize=10;whiteSpace=wrap;html=1;align=center;labelBackgroundColor=none;fillColor=#B2C9AB;strokeColor=#788AA3;fontColor=#46495D;" vertex="1" parent="1">
          <mxGeometry x="1189.6799999999998" y="845" width="100" height="40" as="geometry" />
        </mxCell>
        <mxCell id="F2shb6BZP4cMJl0DHBAz-93" value="Post_Id" style="ellipse;whiteSpace=wrap;html=1;align=center;fontStyle=4;labelBackgroundColor=none;fillColor=#B2C9AB;strokeColor=#788AA3;fontColor=#46495D;" vertex="1" parent="1">
          <mxGeometry x="1139.6799999999998" y="770" width="100" height="30" as="geometry" />
        </mxCell>
        <mxCell id="F2shb6BZP4cMJl0DHBAz-94" value="" style="endArrow=none;html=1;rounded=0;exitX=0.5;exitY=1;exitDx=0;exitDy=0;entryX=0.25;entryY=0;entryDx=0;entryDy=0;labelBackgroundColor=none;strokeColor=#788AA3;fontColor=default;" edge="1" parent="1" source="F2shb6BZP4cMJl0DHBAz-93" target="F2shb6BZP4cMJl0DHBAz-92">
          <mxGeometry relative="1" as="geometry">
            <mxPoint x="1169.6799999999998" y="830" as="sourcePoint" />
            <mxPoint x="1329.6799999999998" y="830" as="targetPoint" />
          </mxGeometry>
        </mxCell>
        <mxCell id="F2shb6BZP4cMJl0DHBAz-95" value="" style="endArrow=none;html=1;rounded=0;exitX=0.5;exitY=1;exitDx=0;exitDy=0;entryX=0.5;entryY=0;entryDx=0;entryDy=0;labelBackgroundColor=none;strokeColor=#788AA3;fontColor=default;" edge="1" parent="1" source="F2shb6BZP4cMJl0DHBAz-65" target="F2shb6BZP4cMJl0DHBAz-92">
          <mxGeometry relative="1" as="geometry">
            <mxPoint x="1289.6799999999998" y="810" as="sourcePoint" />
            <mxPoint x="1449.6799999999998" y="810" as="targetPoint" />
          </mxGeometry>
        </mxCell>
        <mxCell id="F2shb6BZP4cMJl0DHBAz-97" value="" style="endArrow=none;html=1;rounded=0;exitX=0.5;exitY=1;exitDx=0;exitDy=0;entryX=0.75;entryY=0;entryDx=0;entryDy=0;labelBackgroundColor=none;strokeColor=#788AA3;fontColor=default;" edge="1" parent="1" target="F2shb6BZP4cMJl0DHBAz-92">
          <mxGeometry relative="1" as="geometry">
            <mxPoint x="1309.6799999999998" y="800" as="sourcePoint" />
            <mxPoint x="1479.6799999999998" y="840" as="targetPoint" />
          </mxGeometry>
        </mxCell>
        <mxCell id="F2shb6BZP4cMJl0DHBAz-100" value="Amount" style="ellipse;whiteSpace=wrap;html=1;align=center;labelBackgroundColor=none;fillColor=#B2C9AB;strokeColor=#788AA3;fontColor=#46495D;" vertex="1" parent="1">
          <mxGeometry x="10" y="295" width="90" height="30" as="geometry" />
        </mxCell>
        <mxCell id="F2shb6BZP4cMJl0DHBAz-102" value="Reach" style="ellipse;whiteSpace=wrap;html=1;align=center;labelBackgroundColor=none;fillColor=#B2C9AB;strokeColor=#788AA3;fontColor=#46495D;" vertex="1" parent="1">
          <mxGeometry x="670" y="980" width="100" height="30" as="geometry" />
        </mxCell>
        <mxCell id="F2shb6BZP4cMJl0DHBAz-103" value="Date" style="ellipse;whiteSpace=wrap;html=1;align=center;labelBackgroundColor=none;fillColor=#B2C9AB;strokeColor=#788AA3;fontColor=#46495D;" vertex="1" parent="1">
          <mxGeometry x="10" y="245" width="80" height="30" as="geometry" />
        </mxCell>
        <mxCell id="F2shb6BZP4cMJl0DHBAz-104" value="Collaboration" style="rounded=1;arcSize=10;whiteSpace=wrap;html=1;align=center;labelBackgroundColor=none;fillColor=#B2C9AB;strokeColor=#788AA3;fontColor=#46495D;" vertex="1" parent="1">
          <mxGeometry x="422.5" y="180" width="100" height="40" as="geometry" />
        </mxCell>
        <mxCell id="F2shb6BZP4cMJl0DHBAz-105" value="Payment_Amount" style="ellipse;whiteSpace=wrap;html=1;align=center;labelBackgroundColor=none;fillColor=#B2C9AB;strokeColor=#788AA3;fontColor=#46495D;" vertex="1" parent="1">
          <mxGeometry x="350" width="115" height="20" as="geometry" />
        </mxCell>
        <mxCell id="F2shb6BZP4cMJl0DHBAz-106" value="Status" style="ellipse;whiteSpace=wrap;html=1;align=center;labelBackgroundColor=none;fillColor=#B2C9AB;strokeColor=#788AA3;fontColor=#46495D;" vertex="1" parent="1">
          <mxGeometry x="247.5" y="130" width="100" height="30" as="geometry" />
        </mxCell>
        <mxCell id="F2shb6BZP4cMJl0DHBAz-107" value="End_Date" style="ellipse;whiteSpace=wrap;html=1;align=center;labelBackgroundColor=none;fillColor=#B2C9AB;strokeColor=#788AA3;fontColor=#46495D;" vertex="1" parent="1">
          <mxGeometry x="490" y="60" width="100" height="30" as="geometry" />
        </mxCell>
        <mxCell id="F2shb6BZP4cMJl0DHBAz-108" value="Collaboration_Id" style="ellipse;whiteSpace=wrap;html=1;align=center;fontStyle=4;labelBackgroundColor=none;fillColor=#B2C9AB;strokeColor=#788AA3;fontColor=#46495D;" vertex="1" parent="1">
          <mxGeometry x="295" y="30" width="120" height="30" as="geometry" />
        </mxCell>
        <mxCell id="F2shb6BZP4cMJl0DHBAz-111" value="" style="endArrow=none;html=1;rounded=0;exitX=0.5;exitY=1;exitDx=0;exitDy=0;entryX=0.25;entryY=0;entryDx=0;entryDy=0;labelBackgroundColor=none;strokeColor=#788AA3;fontColor=default;" edge="1" parent="1" source="F2shb6BZP4cMJl0DHBAz-108" target="F2shb6BZP4cMJl0DHBAz-104">
          <mxGeometry relative="1" as="geometry">
            <mxPoint x="452.5" y="150" as="sourcePoint" />
            <mxPoint x="612.5" y="150" as="targetPoint" />
          </mxGeometry>
        </mxCell>
        <mxCell id="F2shb6BZP4cMJl0DHBAz-113" value="" style="endArrow=none;html=1;rounded=0;exitX=0.5;exitY=1;exitDx=0;exitDy=0;entryX=0.5;entryY=0;entryDx=0;entryDy=0;labelBackgroundColor=none;strokeColor=#788AA3;fontColor=default;" edge="1" parent="1" source="F2shb6BZP4cMJl0DHBAz-105" target="F2shb6BZP4cMJl0DHBAz-104">
          <mxGeometry relative="1" as="geometry">
            <mxPoint x="452.5" y="170" as="sourcePoint" />
            <mxPoint x="612.5" y="170" as="targetPoint" />
          </mxGeometry>
        </mxCell>
        <mxCell id="F2shb6BZP4cMJl0DHBAz-114" value="" style="endArrow=none;html=1;rounded=0;exitX=0.5;exitY=1;exitDx=0;exitDy=0;entryX=0.75;entryY=0;entryDx=0;entryDy=0;labelBackgroundColor=none;strokeColor=#788AA3;fontColor=default;" edge="1" parent="1" source="F2shb6BZP4cMJl0DHBAz-46" target="F2shb6BZP4cMJl0DHBAz-104">
          <mxGeometry relative="1" as="geometry">
            <mxPoint x="542.5" y="220" as="sourcePoint" />
            <mxPoint x="702.5" y="220" as="targetPoint" />
          </mxGeometry>
        </mxCell>
        <mxCell id="F2shb6BZP4cMJl0DHBAz-115" value="" style="endArrow=none;html=1;rounded=0;entryX=1;entryY=0.5;entryDx=0;entryDy=0;exitX=0.25;exitY=0;exitDx=0;exitDy=0;labelBackgroundColor=none;strokeColor=#788AA3;fontColor=default;" edge="1" parent="1" source="F2shb6BZP4cMJl0DHBAz-104" target="F2shb6BZP4cMJl0DHBAz-106">
          <mxGeometry relative="1" as="geometry">
            <mxPoint x="262.5" y="200" as="sourcePoint" />
            <mxPoint x="262.5" y="200" as="targetPoint" />
          </mxGeometry>
        </mxCell>
        <mxCell id="F2shb6BZP4cMJl0DHBAz-116" value="" style="endArrow=none;html=1;rounded=0;exitX=0;exitY=0.5;exitDx=0;exitDy=0;entryX=0.75;entryY=0;entryDx=0;entryDy=0;labelBackgroundColor=none;strokeColor=#788AA3;fontColor=default;" edge="1" parent="1" source="F2shb6BZP4cMJl0DHBAz-74" target="F2shb6BZP4cMJl0DHBAz-104">
          <mxGeometry relative="1" as="geometry">
            <mxPoint x="392.5" y="220" as="sourcePoint" />
            <mxPoint x="562.5" y="260" as="targetPoint" />
          </mxGeometry>
        </mxCell>
        <mxCell id="F2shb6BZP4cMJl0DHBAz-119" value="Payment" style="rounded=1;arcSize=10;whiteSpace=wrap;html=1;align=center;labelBackgroundColor=none;fillColor=#B2C9AB;strokeColor=#788AA3;fontColor=#46495D;" vertex="1" parent="1">
          <mxGeometry x="130" y="260" width="100" height="40" as="geometry" />
        </mxCell>
        <mxCell id="F2shb6BZP4cMJl0DHBAz-121" value="Payment_Id" style="ellipse;whiteSpace=wrap;html=1;align=center;fontStyle=4;labelBackgroundColor=none;fillColor=#B2C9AB;strokeColor=#788AA3;fontColor=#46495D;" vertex="1" parent="1">
          <mxGeometry x="30" y="195" width="100" height="30" as="geometry" />
        </mxCell>
        <mxCell id="F2shb6BZP4cMJl0DHBAz-126" value="Conversion_Rate" style="ellipse;whiteSpace=wrap;html=1;align=center;labelBackgroundColor=none;fillColor=#B2C9AB;strokeColor=#788AA3;fontColor=#46495D;" vertex="1" parent="1">
          <mxGeometry x="660" y="940" width="110" height="30" as="geometry" />
        </mxCell>
        <mxCell id="F2shb6BZP4cMJl0DHBAz-127" value="Clicks" style="ellipse;whiteSpace=wrap;html=1;align=center;labelBackgroundColor=none;fillColor=#B2C9AB;strokeColor=#788AA3;fontColor=#46495D;" vertex="1" parent="1">
          <mxGeometry x="915" y="1040" width="100" height="30" as="geometry" />
        </mxCell>
        <mxCell id="F2shb6BZP4cMJl0DHBAz-129" value="Status" style="ellipse;whiteSpace=wrap;html=1;align=center;labelBackgroundColor=none;fillColor=#B2C9AB;strokeColor=#788AA3;fontColor=#46495D;" vertex="1" parent="1">
          <mxGeometry x="100" y="170" width="100" height="30" as="geometry" />
        </mxCell>
        <mxCell id="F2shb6BZP4cMJl0DHBAz-130" value="" style="endArrow=none;html=1;rounded=0;exitX=0.5;exitY=1;exitDx=0;exitDy=0;entryX=0.25;entryY=0;entryDx=0;entryDy=0;labelBackgroundColor=none;strokeColor=#788AA3;fontColor=default;" edge="1" parent="1" source="F2shb6BZP4cMJl0DHBAz-121" target="F2shb6BZP4cMJl0DHBAz-119">
          <mxGeometry relative="1" as="geometry">
            <mxPoint x="80" y="235" as="sourcePoint" />
            <mxPoint x="240" y="235" as="targetPoint" />
          </mxGeometry>
        </mxCell>
        <mxCell id="F2shb6BZP4cMJl0DHBAz-132" value="" style="endArrow=none;html=1;rounded=0;exitX=0.5;exitY=1;exitDx=0;exitDy=0;entryX=0.5;entryY=0;entryDx=0;entryDy=0;labelBackgroundColor=none;strokeColor=#788AA3;fontColor=default;" edge="1" parent="1" source="F2shb6BZP4cMJl0DHBAz-129" target="F2shb6BZP4cMJl0DHBAz-119">
          <mxGeometry relative="1" as="geometry">
            <mxPoint x="180" y="225" as="sourcePoint" />
            <mxPoint x="340" y="225" as="targetPoint" />
          </mxGeometry>
        </mxCell>
        <mxCell id="F2shb6BZP4cMJl0DHBAz-133" value="" style="endArrow=none;html=1;rounded=0;exitX=0.5;exitY=1;exitDx=0;exitDy=0;entryX=0.75;entryY=0;entryDx=0;entryDy=0;labelBackgroundColor=none;strokeColor=#788AA3;fontColor=default;" edge="1" parent="1" target="F2shb6BZP4cMJl0DHBAz-119">
          <mxGeometry relative="1" as="geometry">
            <mxPoint x="220" y="230" as="sourcePoint" />
            <mxPoint x="410" y="255" as="targetPoint" />
          </mxGeometry>
        </mxCell>
        <mxCell id="F2shb6BZP4cMJl0DHBAz-134" value="" style="endArrow=none;html=1;rounded=0;exitX=1;exitY=0.5;exitDx=0;exitDy=0;entryX=0;entryY=0.25;entryDx=0;entryDy=0;labelBackgroundColor=none;strokeColor=#788AA3;fontColor=default;" edge="1" parent="1" source="F2shb6BZP4cMJl0DHBAz-103" target="F2shb6BZP4cMJl0DHBAz-119">
          <mxGeometry relative="1" as="geometry">
            <mxPoint x="90" y="285" as="sourcePoint" />
            <mxPoint x="250" y="285" as="targetPoint" />
          </mxGeometry>
        </mxCell>
        <mxCell id="F2shb6BZP4cMJl0DHBAz-135" value="" style="endArrow=none;html=1;rounded=0;exitX=1;exitY=0;exitDx=0;exitDy=0;entryX=0;entryY=0.5;entryDx=0;entryDy=0;labelBackgroundColor=none;strokeColor=#788AA3;fontColor=default;" edge="1" parent="1" source="F2shb6BZP4cMJl0DHBAz-100" target="F2shb6BZP4cMJl0DHBAz-119">
          <mxGeometry relative="1" as="geometry">
            <mxPoint x="110" y="375" as="sourcePoint" />
            <mxPoint x="270" y="375" as="targetPoint" />
          </mxGeometry>
        </mxCell>
        <mxCell id="F2shb6BZP4cMJl0DHBAz-136" value="Report" style="rounded=1;arcSize=10;whiteSpace=wrap;html=1;align=center;labelBackgroundColor=none;fillColor=#B2C9AB;strokeColor=#788AA3;fontColor=#46495D;" vertex="1" parent="1">
          <mxGeometry x="805" y="970" width="100" height="40" as="geometry" />
        </mxCell>
        <mxCell id="F2shb6BZP4cMJl0DHBAz-137" value="Report_Id" style="ellipse;whiteSpace=wrap;html=1;align=center;fontStyle=4;labelBackgroundColor=none;fillColor=#B2C9AB;strokeColor=#788AA3;fontColor=#46495D;" vertex="1" parent="1">
          <mxGeometry x="780" y="1050" width="100" height="30" as="geometry" />
        </mxCell>
        <mxCell id="F2shb6BZP4cMJl0DHBAz-139" value="" style="endArrow=none;html=1;rounded=0;exitX=0.5;exitY=0;exitDx=0;exitDy=0;entryX=0.25;entryY=1;entryDx=0;entryDy=0;labelBackgroundColor=none;strokeColor=#788AA3;fontColor=default;" edge="1" parent="1" source="F2shb6BZP4cMJl0DHBAz-137" target="F2shb6BZP4cMJl0DHBAz-136">
          <mxGeometry relative="1" as="geometry">
            <mxPoint x="855" y="925" as="sourcePoint" />
            <mxPoint x="1015" y="925" as="targetPoint" />
          </mxGeometry>
        </mxCell>
        <mxCell id="F2shb6BZP4cMJl0DHBAz-140" value="" style="endArrow=none;html=1;rounded=0;exitX=0;exitY=0.5;exitDx=0;exitDy=0;entryX=1;entryY=0.75;entryDx=0;entryDy=0;labelBackgroundColor=none;strokeColor=#788AA3;fontColor=default;" edge="1" parent="1" source="F2shb6BZP4cMJl0DHBAz-86" target="F2shb6BZP4cMJl0DHBAz-136">
          <mxGeometry relative="1" as="geometry">
            <mxPoint x="865" y="945" as="sourcePoint" />
            <mxPoint x="1025" y="945" as="targetPoint" />
          </mxGeometry>
        </mxCell>
        <mxCell id="F2shb6BZP4cMJl0DHBAz-141" value="" style="endArrow=none;html=1;rounded=0;exitX=0.75;exitY=1;exitDx=0;exitDy=0;entryX=0;entryY=0;entryDx=0;entryDy=0;labelBackgroundColor=none;strokeColor=#788AA3;fontColor=default;" edge="1" parent="1" source="F2shb6BZP4cMJl0DHBAz-136" target="F2shb6BZP4cMJl0DHBAz-127">
          <mxGeometry relative="1" as="geometry">
            <mxPoint x="925" y="975" as="sourcePoint" />
            <mxPoint x="1085" y="975" as="targetPoint" />
          </mxGeometry>
        </mxCell>
        <mxCell id="F2shb6BZP4cMJl0DHBAz-142" value="" style="endArrow=none;html=1;rounded=0;exitX=1;exitY=1;exitDx=0;exitDy=0;entryX=0;entryY=0.25;entryDx=0;entryDy=0;labelBackgroundColor=none;strokeColor=#788AA3;fontColor=default;" edge="1" parent="1" source="F2shb6BZP4cMJl0DHBAz-126" target="F2shb6BZP4cMJl0DHBAz-136">
          <mxGeometry relative="1" as="geometry">
            <mxPoint x="735" y="985" as="sourcePoint" />
            <mxPoint x="895" y="985" as="targetPoint" />
          </mxGeometry>
        </mxCell>
        <mxCell id="F2shb6BZP4cMJl0DHBAz-143" value="" style="endArrow=none;html=1;rounded=0;exitX=1;exitY=0.5;exitDx=0;exitDy=0;entryX=0;entryY=0.5;entryDx=0;entryDy=0;labelBackgroundColor=none;strokeColor=#788AA3;fontColor=default;" edge="1" parent="1" source="F2shb6BZP4cMJl0DHBAz-102" target="F2shb6BZP4cMJl0DHBAz-136">
          <mxGeometry relative="1" as="geometry">
            <mxPoint x="695" y="1005" as="sourcePoint" />
            <mxPoint x="855" y="1005" as="targetPoint" />
          </mxGeometry>
        </mxCell>
        <mxCell id="F2shb6BZP4cMJl0DHBAz-144" value="Admin" style="rounded=1;arcSize=10;whiteSpace=wrap;html=1;align=center;labelBackgroundColor=none;fillColor=#B2C9AB;strokeColor=#788AA3;fontColor=#46495D;" vertex="1" parent="1">
          <mxGeometry x="830" y="460" width="100" height="40" as="geometry" />
        </mxCell>
        <mxCell id="F2shb6BZP4cMJl0DHBAz-145" value="Marketing_Manager" style="rounded=1;arcSize=10;whiteSpace=wrap;html=1;align=center;labelBackgroundColor=none;fillColor=#B2C9AB;strokeColor=#788AA3;fontColor=#46495D;" vertex="1" parent="1">
          <mxGeometry x="945" y="460" width="120" height="40" as="geometry" />
        </mxCell>
        <mxCell id="F2shb6BZP4cMJl0DHBAz-146" value="Client" style="rounded=1;arcSize=10;whiteSpace=wrap;html=1;align=center;labelBackgroundColor=none;fillColor=#B2C9AB;strokeColor=#788AA3;fontColor=#46495D;" vertex="1" parent="1">
          <mxGeometry x="1075" y="460" width="100" height="40" as="geometry" />
        </mxCell>
        <mxCell id="F2shb6BZP4cMJl0DHBAz-147" value="Influencer" style="rounded=1;arcSize=10;whiteSpace=wrap;html=1;align=center;labelBackgroundColor=none;fillColor=#B2C9AB;strokeColor=#788AA3;fontColor=#46495D;" vertex="1" parent="1">
          <mxGeometry x="1190" y="460" width="100" height="40" as="geometry" />
        </mxCell>
        <mxCell id="F2shb6BZP4cMJl0DHBAz-148" value="" style="endArrow=none;html=1;rounded=0;exitX=0.5;exitY=0;exitDx=0;exitDy=0;entryX=0.25;entryY=1;entryDx=0;entryDy=0;labelBackgroundColor=none;strokeColor=#788AA3;fontColor=default;" edge="1" parent="1" source="F2shb6BZP4cMJl0DHBAz-144" target="F2shb6BZP4cMJl0DHBAz-1">
          <mxGeometry relative="1" as="geometry">
            <mxPoint x="940" y="500" as="sourcePoint" />
            <mxPoint x="1100" y="500" as="targetPoint" />
          </mxGeometry>
        </mxCell>
        <mxCell id="F2shb6BZP4cMJl0DHBAz-149" value="" style="endArrow=none;html=1;rounded=0;exitX=0.5;exitY=1;exitDx=0;exitDy=0;entryX=0.25;entryY=0;entryDx=0;entryDy=0;labelBackgroundColor=none;strokeColor=#788AA3;fontColor=default;" edge="1" parent="1" source="F2shb6BZP4cMJl0DHBAz-1" target="F2shb6BZP4cMJl0DHBAz-145">
          <mxGeometry relative="1" as="geometry">
            <mxPoint x="1020" y="430" as="sourcePoint" />
            <mxPoint x="1180" y="430" as="targetPoint" />
          </mxGeometry>
        </mxCell>
        <mxCell id="F2shb6BZP4cMJl0DHBAz-150" value="" style="endArrow=none;html=1;rounded=0;exitX=0.75;exitY=1;exitDx=0;exitDy=0;entryX=0.25;entryY=0;entryDx=0;entryDy=0;labelBackgroundColor=none;strokeColor=#788AA3;fontColor=default;" edge="1" parent="1" source="F2shb6BZP4cMJl0DHBAz-1" target="F2shb6BZP4cMJl0DHBAz-146">
          <mxGeometry relative="1" as="geometry">
            <mxPoint x="1090" y="440" as="sourcePoint" />
            <mxPoint x="1250" y="440" as="targetPoint" />
          </mxGeometry>
        </mxCell>
        <mxCell id="F2shb6BZP4cMJl0DHBAz-151" value="" style="endArrow=none;html=1;rounded=0;exitX=1;exitY=0.75;exitDx=0;exitDy=0;entryX=0.25;entryY=0;entryDx=0;entryDy=0;labelBackgroundColor=none;strokeColor=#788AA3;fontColor=default;" edge="1" parent="1" source="F2shb6BZP4cMJl0DHBAz-1" target="F2shb6BZP4cMJl0DHBAz-147">
          <mxGeometry relative="1" as="geometry">
            <mxPoint x="1040" y="420" as="sourcePoint" />
            <mxPoint x="1200" y="420" as="targetPoint" />
          </mxGeometry>
        </mxCell>
        <mxCell id="F2shb6BZP4cMJl0DHBAz-155" value="Has" style="shape=rhombus;perimeter=rhombusPerimeter;whiteSpace=wrap;html=1;align=center;labelBackgroundColor=none;fillColor=#B2C9AB;strokeColor=#788AA3;fontColor=#46495D;" vertex="1" parent="1">
          <mxGeometry x="1180" y="600" width="120" height="60" as="geometry" />
        </mxCell>
        <mxCell id="F2shb6BZP4cMJl0DHBAz-158" value="" style="endArrow=none;html=1;rounded=0;exitX=0.5;exitY=0;exitDx=0;exitDy=0;entryX=0.5;entryY=1;entryDx=0;entryDy=0;labelBackgroundColor=none;strokeColor=#788AA3;fontColor=default;" edge="1" parent="1" source="F2shb6BZP4cMJl0DHBAz-155" target="F2shb6BZP4cMJl0DHBAz-146">
          <mxGeometry relative="1" as="geometry">
            <mxPoint x="1090" y="560" as="sourcePoint" />
            <mxPoint x="1250" y="560" as="targetPoint" />
          </mxGeometry>
        </mxCell>
        <mxCell id="F2shb6BZP4cMJl0DHBAz-159" value="1" style="resizable=0;html=1;whiteSpace=wrap;align=right;verticalAlign=bottom;labelBackgroundColor=none;fillColor=#B2C9AB;strokeColor=#788AA3;fontColor=#46495D;" connectable="0" vertex="1" parent="F2shb6BZP4cMJl0DHBAz-158">
          <mxGeometry x="1" relative="1" as="geometry" />
        </mxCell>
        <mxCell id="F2shb6BZP4cMJl0DHBAz-160" value="" style="endArrow=none;html=1;rounded=0;exitX=0.75;exitY=0;exitDx=0;exitDy=0;entryX=0;entryY=0.5;entryDx=0;entryDy=0;labelBackgroundColor=none;strokeColor=#788AA3;fontColor=default;" edge="1" parent="1" source="F2shb6BZP4cMJl0DHBAz-16" target="F2shb6BZP4cMJl0DHBAz-34">
          <mxGeometry relative="1" as="geometry">
            <mxPoint x="1495" y="680" as="sourcePoint" />
            <mxPoint x="1655" y="680" as="targetPoint" />
          </mxGeometry>
        </mxCell>
        <mxCell id="F2shb6BZP4cMJl0DHBAz-162" value="" style="endArrow=none;html=1;rounded=0;exitX=1;exitY=0.5;exitDx=0;exitDy=0;entryX=0;entryY=0.5;entryDx=0;entryDy=0;labelBackgroundColor=none;strokeColor=#788AA3;fontColor=default;" edge="1" parent="1" source="F2shb6BZP4cMJl0DHBAz-16" target="F2shb6BZP4cMJl0DHBAz-28">
          <mxGeometry relative="1" as="geometry">
            <mxPoint x="1495" y="680" as="sourcePoint" />
            <mxPoint x="1655" y="680" as="targetPoint" />
          </mxGeometry>
        </mxCell>
        <mxCell id="F2shb6BZP4cMJl0DHBAz-163" value="" style="endArrow=none;html=1;rounded=0;exitX=0.5;exitY=1;exitDx=0;exitDy=0;entryX=0;entryY=0.75;entryDx=0;entryDy=0;labelBackgroundColor=none;strokeColor=#788AA3;fontColor=default;" edge="1" parent="1" source="F2shb6BZP4cMJl0DHBAz-155" target="F2shb6BZP4cMJl0DHBAz-16">
          <mxGeometry relative="1" as="geometry">
            <mxPoint x="1110" y="700" as="sourcePoint" />
            <mxPoint x="1270" y="700" as="targetPoint" />
          </mxGeometry>
        </mxCell>
        <mxCell id="F2shb6BZP4cMJl0DHBAz-164" value="1" style="resizable=0;html=1;whiteSpace=wrap;align=right;verticalAlign=bottom;labelBackgroundColor=none;fillColor=#B2C9AB;strokeColor=#788AA3;fontColor=#46495D;" connectable="0" vertex="1" parent="F2shb6BZP4cMJl0DHBAz-163">
          <mxGeometry x="1" relative="1" as="geometry">
            <mxPoint x="-10" y="-5" as="offset" />
          </mxGeometry>
        </mxCell>
        <mxCell id="F2shb6BZP4cMJl0DHBAz-165" value="" style="endArrow=none;html=1;rounded=0;exitX=0;exitY=1;exitDx=0;exitDy=0;entryX=0.75;entryY=0;entryDx=0;entryDy=0;labelBackgroundColor=none;strokeColor=#788AA3;fontColor=default;" edge="1" parent="1" source="F2shb6BZP4cMJl0DHBAz-49" target="F2shb6BZP4cMJl0DHBAz-44">
          <mxGeometry relative="1" as="geometry">
            <mxPoint x="1430" y="160" as="sourcePoint" />
            <mxPoint x="1590" y="160" as="targetPoint" />
          </mxGeometry>
        </mxCell>
        <mxCell id="F2shb6BZP4cMJl0DHBAz-166" value="" style="endArrow=none;html=1;rounded=0;exitX=0;exitY=0.5;exitDx=0;exitDy=0;entryX=0.75;entryY=0;entryDx=0;entryDy=0;labelBackgroundColor=none;strokeColor=#788AA3;fontColor=default;" edge="1" parent="1" source="F2shb6BZP4cMJl0DHBAz-50" target="F2shb6BZP4cMJl0DHBAz-44">
          <mxGeometry relative="1" as="geometry">
            <mxPoint x="1120" y="360" as="sourcePoint" />
            <mxPoint x="1280" y="360" as="targetPoint" />
          </mxGeometry>
        </mxCell>
        <mxCell id="F2shb6BZP4cMJl0DHBAz-167" value="Has" style="shape=rhombus;perimeter=rhombusPerimeter;whiteSpace=wrap;html=1;align=center;labelBackgroundColor=none;fillColor=#B2C9AB;strokeColor=#788AA3;fontColor=#46495D;" vertex="1" parent="1">
          <mxGeometry x="1250" y="305" width="120" height="60" as="geometry" />
        </mxCell>
        <mxCell id="F2shb6BZP4cMJl0DHBAz-168" value="" style="endArrow=none;html=1;rounded=0;exitX=0.5;exitY=0;exitDx=0;exitDy=0;entryX=0.75;entryY=1;entryDx=0;entryDy=0;labelBackgroundColor=none;strokeColor=#788AA3;fontColor=default;" edge="1" parent="1" source="F2shb6BZP4cMJl0DHBAz-167" target="F2shb6BZP4cMJl0DHBAz-44">
          <mxGeometry relative="1" as="geometry">
            <mxPoint x="1350" y="280" as="sourcePoint" />
            <mxPoint x="1510" y="280" as="targetPoint" />
          </mxGeometry>
        </mxCell>
        <mxCell id="F2shb6BZP4cMJl0DHBAz-169" value="1" style="resizable=0;html=1;whiteSpace=wrap;align=right;verticalAlign=bottom;labelBackgroundColor=none;fillColor=#B2C9AB;strokeColor=#788AA3;fontColor=#46495D;" connectable="0" vertex="1" parent="F2shb6BZP4cMJl0DHBAz-168">
          <mxGeometry x="1" relative="1" as="geometry" />
        </mxCell>
        <mxCell id="F2shb6BZP4cMJl0DHBAz-172" value="" style="endArrow=none;html=1;rounded=0;exitX=0.5;exitY=1;exitDx=0;exitDy=0;entryX=0.75;entryY=0;entryDx=0;entryDy=0;labelBackgroundColor=none;strokeColor=#788AA3;fontColor=default;" edge="1" parent="1" source="F2shb6BZP4cMJl0DHBAz-167" target="F2shb6BZP4cMJl0DHBAz-147">
          <mxGeometry relative="1" as="geometry">
            <mxPoint x="1300" y="410" as="sourcePoint" />
            <mxPoint x="1460" y="410" as="targetPoint" />
          </mxGeometry>
        </mxCell>
        <mxCell id="F2shb6BZP4cMJl0DHBAz-173" value="1" style="resizable=0;html=1;whiteSpace=wrap;align=right;verticalAlign=bottom;labelBackgroundColor=none;fillColor=#B2C9AB;strokeColor=#788AA3;fontColor=#46495D;" connectable="0" vertex="1" parent="F2shb6BZP4cMJl0DHBAz-172">
          <mxGeometry x="1" relative="1" as="geometry" />
        </mxCell>
        <mxCell id="F2shb6BZP4cMJl0DHBAz-177" value="" style="endArrow=none;html=1;rounded=0;exitX=0.5;exitY=0;exitDx=0;exitDy=0;labelBackgroundColor=none;strokeColor=#788AA3;fontColor=default;" edge="1" parent="1" source="F2shb6BZP4cMJl0DHBAz-67" target="F2shb6BZP4cMJl0DHBAz-69">
          <mxGeometry relative="1" as="geometry">
            <mxPoint x="680" y="790" as="sourcePoint" />
            <mxPoint x="840" y="790" as="targetPoint" />
          </mxGeometry>
        </mxCell>
        <mxCell id="F2shb6BZP4cMJl0DHBAz-178" value="" style="endArrow=none;html=1;rounded=0;exitX=1;exitY=1;exitDx=0;exitDy=0;entryX=0.75;entryY=1;entryDx=0;entryDy=0;labelBackgroundColor=none;strokeColor=#788AA3;fontColor=default;" edge="1" parent="1" source="F2shb6BZP4cMJl0DHBAz-52" target="F2shb6BZP4cMJl0DHBAz-69">
          <mxGeometry relative="1" as="geometry">
            <mxPoint x="680" y="790" as="sourcePoint" />
            <mxPoint x="840" y="790" as="targetPoint" />
          </mxGeometry>
        </mxCell>
        <mxCell id="F2shb6BZP4cMJl0DHBAz-179" value="" style="endArrow=none;html=1;rounded=0;entryX=0.5;entryY=0;entryDx=0;entryDy=0;exitX=0.75;exitY=1;exitDx=0;exitDy=0;labelBackgroundColor=none;strokeColor=#788AA3;fontColor=default;" edge="1" parent="1" source="F2shb6BZP4cMJl0DHBAz-69" target="F2shb6BZP4cMJl0DHBAz-68">
          <mxGeometry relative="1" as="geometry">
            <mxPoint x="560" y="770" as="sourcePoint" />
            <mxPoint x="720" y="770" as="targetPoint" />
          </mxGeometry>
        </mxCell>
        <mxCell id="F2shb6BZP4cMJl0DHBAz-180" value="" style="endArrow=none;html=1;rounded=0;exitX=0.5;exitY=1;exitDx=0;exitDy=0;entryX=0;entryY=0.5;entryDx=0;entryDy=0;labelBackgroundColor=none;strokeColor=#788AA3;fontColor=default;" edge="1" parent="1" source="F2shb6BZP4cMJl0DHBAz-70" target="F2shb6BZP4cMJl0DHBAz-69">
          <mxGeometry relative="1" as="geometry">
            <mxPoint x="510" y="690" as="sourcePoint" />
            <mxPoint x="670" y="690" as="targetPoint" />
          </mxGeometry>
        </mxCell>
        <mxCell id="F2shb6BZP4cMJl0DHBAz-181" value="" style="endArrow=none;html=1;rounded=0;exitX=1;exitY=0.5;exitDx=0;exitDy=0;entryX=0;entryY=0.75;entryDx=0;entryDy=0;labelBackgroundColor=none;strokeColor=#788AA3;fontColor=default;" edge="1" parent="1" source="F2shb6BZP4cMJl0DHBAz-51" target="F2shb6BZP4cMJl0DHBAz-69">
          <mxGeometry relative="1" as="geometry">
            <mxPoint x="680" y="790" as="sourcePoint" />
            <mxPoint x="840" y="790" as="targetPoint" />
          </mxGeometry>
        </mxCell>
        <mxCell id="F2shb6BZP4cMJl0DHBAz-182" value="Creates" style="shape=rhombus;perimeter=rhombusPerimeter;whiteSpace=wrap;html=1;align=center;labelBackgroundColor=none;fillColor=#B2C9AB;strokeColor=#788AA3;fontColor=#46495D;" vertex="1" parent="1">
          <mxGeometry x="870" y="615" width="120" height="60" as="geometry" />
        </mxCell>
        <mxCell id="F2shb6BZP4cMJl0DHBAz-185" value="" style="endArrow=none;html=1;rounded=0;exitX=0.5;exitY=0;exitDx=0;exitDy=0;entryX=0.75;entryY=1;entryDx=0;entryDy=0;labelBackgroundColor=none;strokeColor=#788AA3;fontColor=default;" edge="1" parent="1" source="F2shb6BZP4cMJl0DHBAz-182" target="F2shb6BZP4cMJl0DHBAz-145">
          <mxGeometry relative="1" as="geometry">
            <mxPoint x="950" y="570" as="sourcePoint" />
            <mxPoint x="1110" y="570" as="targetPoint" />
          </mxGeometry>
        </mxCell>
        <mxCell id="F2shb6BZP4cMJl0DHBAz-186" value="1" style="resizable=0;html=1;whiteSpace=wrap;align=right;verticalAlign=bottom;labelBackgroundColor=none;fillColor=#B2C9AB;strokeColor=#788AA3;fontColor=#46495D;" connectable="0" vertex="1" parent="F2shb6BZP4cMJl0DHBAz-185">
          <mxGeometry x="1" relative="1" as="geometry" />
        </mxCell>
        <mxCell id="F2shb6BZP4cMJl0DHBAz-189" value="Owns" style="shape=rhombus;perimeter=rhombusPerimeter;whiteSpace=wrap;html=1;align=center;labelBackgroundColor=none;fillColor=#B2C9AB;strokeColor=#788AA3;fontColor=#46495D;" vertex="1" parent="1">
          <mxGeometry x="990" y="660" width="120" height="60" as="geometry" />
        </mxCell>
        <mxCell id="F2shb6BZP4cMJl0DHBAz-190" value="" style="endArrow=none;html=1;rounded=0;exitX=0.5;exitY=0;exitDx=0;exitDy=0;entryX=0.19;entryY=1.065;entryDx=0;entryDy=0;entryPerimeter=0;labelBackgroundColor=none;strokeColor=#788AA3;fontColor=default;" edge="1" parent="1" source="F2shb6BZP4cMJl0DHBAz-189" target="F2shb6BZP4cMJl0DHBAz-146">
          <mxGeometry relative="1" as="geometry">
            <mxPoint x="1030" y="670" as="sourcePoint" />
            <mxPoint x="1190" y="670" as="targetPoint" />
          </mxGeometry>
        </mxCell>
        <mxCell id="F2shb6BZP4cMJl0DHBAz-191" value="1" style="resizable=0;html=1;whiteSpace=wrap;align=right;verticalAlign=bottom;labelBackgroundColor=none;fillColor=#B2C9AB;strokeColor=#788AA3;fontColor=#46495D;" connectable="0" vertex="1" parent="F2shb6BZP4cMJl0DHBAz-190">
          <mxGeometry x="1" relative="1" as="geometry" />
        </mxCell>
        <mxCell id="F2shb6BZP4cMJl0DHBAz-194" value="Supervises" style="shape=rhombus;perimeter=rhombusPerimeter;whiteSpace=wrap;html=1;align=center;labelBackgroundColor=none;fillColor=#B2C9AB;strokeColor=#788AA3;fontColor=#46495D;" vertex="1" parent="1">
          <mxGeometry x="770" y="570" width="120" height="60" as="geometry" />
        </mxCell>
        <mxCell id="F2shb6BZP4cMJl0DHBAz-195" value="" style="endArrow=none;html=1;rounded=0;exitX=0.5;exitY=0;exitDx=0;exitDy=0;entryX=0.5;entryY=1;entryDx=0;entryDy=0;labelBackgroundColor=none;strokeColor=#788AA3;fontColor=default;" edge="1" parent="1" source="F2shb6BZP4cMJl0DHBAz-194" target="F2shb6BZP4cMJl0DHBAz-144">
          <mxGeometry relative="1" as="geometry">
            <mxPoint x="850" y="550" as="sourcePoint" />
            <mxPoint x="1010" y="550" as="targetPoint" />
          </mxGeometry>
        </mxCell>
        <mxCell id="F2shb6BZP4cMJl0DHBAz-196" value="1" style="resizable=0;html=1;whiteSpace=wrap;align=right;verticalAlign=bottom;labelBackgroundColor=none;fillColor=#B2C9AB;strokeColor=#788AA3;fontColor=#46495D;" connectable="0" vertex="1" parent="F2shb6BZP4cMJl0DHBAz-195">
          <mxGeometry x="1" relative="1" as="geometry" />
        </mxCell>
        <mxCell id="F2shb6BZP4cMJl0DHBAz-201" value="" style="endArrow=none;html=1;rounded=0;exitX=0.75;exitY=0;exitDx=0;exitDy=0;entryX=0;entryY=0.5;entryDx=0;entryDy=0;labelBackgroundColor=none;strokeColor=#788AA3;fontColor=default;" edge="1" parent="1" source="F2shb6BZP4cMJl0DHBAz-92" target="F2shb6BZP4cMJl0DHBAz-88">
          <mxGeometry relative="1" as="geometry">
            <mxPoint x="1320" y="870" as="sourcePoint" />
            <mxPoint x="1480" y="870" as="targetPoint" />
          </mxGeometry>
        </mxCell>
        <mxCell id="F2shb6BZP4cMJl0DHBAz-202" value="" style="endArrow=none;html=1;rounded=0;exitX=1;exitY=0.5;exitDx=0;exitDy=0;entryX=0;entryY=0.5;entryDx=0;entryDy=0;labelBackgroundColor=none;strokeColor=#788AA3;fontColor=default;" edge="1" parent="1" source="F2shb6BZP4cMJl0DHBAz-92" target="F2shb6BZP4cMJl0DHBAz-90">
          <mxGeometry relative="1" as="geometry">
            <mxPoint x="1310" y="870" as="sourcePoint" />
            <mxPoint x="1470" y="870" as="targetPoint" />
          </mxGeometry>
        </mxCell>
        <mxCell id="F2shb6BZP4cMJl0DHBAz-203" value="" style="endArrow=none;html=1;rounded=0;exitX=1;exitY=0.5;exitDx=0;exitDy=0;entryX=0.5;entryY=0;entryDx=0;entryDy=0;labelBackgroundColor=none;strokeColor=#788AA3;fontColor=default;" edge="1" parent="1" source="F2shb6BZP4cMJl0DHBAz-92" target="F2shb6BZP4cMJl0DHBAz-91">
          <mxGeometry relative="1" as="geometry">
            <mxPoint x="1300" y="890" as="sourcePoint" />
            <mxPoint x="1460" y="890" as="targetPoint" />
          </mxGeometry>
        </mxCell>
        <mxCell id="F2shb6BZP4cMJl0DHBAz-204" value="Includes" style="shape=rhombus;perimeter=rhombusPerimeter;whiteSpace=wrap;html=1;align=center;labelBackgroundColor=none;fillColor=#B2C9AB;strokeColor=#788AA3;fontColor=#46495D;" vertex="1" parent="1">
          <mxGeometry x="1019.6800000000001" y="835" width="120" height="60" as="geometry" />
        </mxCell>
        <mxCell id="F2shb6BZP4cMJl0DHBAz-205" value="" style="endArrow=none;html=1;rounded=0;exitX=1;exitY=0.5;exitDx=0;exitDy=0;entryX=0;entryY=0.5;entryDx=0;entryDy=0;labelBackgroundColor=none;strokeColor=#788AA3;fontColor=default;" edge="1" parent="1" source="F2shb6BZP4cMJl0DHBAz-204" target="F2shb6BZP4cMJl0DHBAz-92">
          <mxGeometry relative="1" as="geometry">
            <mxPoint x="1130" y="890" as="sourcePoint" />
            <mxPoint x="1290" y="890" as="targetPoint" />
          </mxGeometry>
        </mxCell>
        <mxCell id="F2shb6BZP4cMJl0DHBAz-206" value="N" style="resizable=0;html=1;whiteSpace=wrap;align=right;verticalAlign=bottom;labelBackgroundColor=none;fillColor=#B2C9AB;strokeColor=#788AA3;fontColor=#46495D;" connectable="0" vertex="1" parent="F2shb6BZP4cMJl0DHBAz-205">
          <mxGeometry x="1" relative="1" as="geometry" />
        </mxCell>
        <mxCell id="F2shb6BZP4cMJl0DHBAz-207" value="" style="endArrow=none;html=1;rounded=0;exitX=0.5;exitY=0;exitDx=0;exitDy=0;entryX=1;entryY=0.75;entryDx=0;entryDy=0;labelBackgroundColor=none;strokeColor=#788AA3;fontColor=default;" edge="1" parent="1" source="F2shb6BZP4cMJl0DHBAz-204" target="F2shb6BZP4cMJl0DHBAz-69">
          <mxGeometry relative="1" as="geometry">
            <mxPoint x="980" y="770" as="sourcePoint" />
            <mxPoint x="1140" y="770" as="targetPoint" />
          </mxGeometry>
        </mxCell>
        <mxCell id="F2shb6BZP4cMJl0DHBAz-208" value="1" style="resizable=0;html=1;whiteSpace=wrap;align=right;verticalAlign=bottom;labelBackgroundColor=none;fillColor=#B2C9AB;strokeColor=#788AA3;fontColor=#46495D;" connectable="0" vertex="1" parent="F2shb6BZP4cMJl0DHBAz-207">
          <mxGeometry x="1" relative="1" as="geometry" />
        </mxCell>
        <mxCell id="F2shb6BZP4cMJl0DHBAz-209" value="" style="endArrow=none;html=1;rounded=0;exitX=0;exitY=0.5;exitDx=0;exitDy=0;entryX=0.5;entryY=0;entryDx=0;entryDy=0;labelBackgroundColor=none;strokeColor=#788AA3;fontColor=default;" edge="1" parent="1" source="F2shb6BZP4cMJl0DHBAz-194" target="F2shb6BZP4cMJl0DHBAz-69">
          <mxGeometry relative="1" as="geometry">
            <mxPoint x="600" y="660" as="sourcePoint" />
            <mxPoint x="760" y="660" as="targetPoint" />
          </mxGeometry>
        </mxCell>
        <mxCell id="F2shb6BZP4cMJl0DHBAz-210" value="N" style="resizable=0;html=1;whiteSpace=wrap;align=right;verticalAlign=bottom;labelBackgroundColor=none;fillColor=#B2C9AB;strokeColor=#788AA3;fontColor=#46495D;" connectable="0" vertex="1" parent="F2shb6BZP4cMJl0DHBAz-209">
          <mxGeometry x="1" relative="1" as="geometry" />
        </mxCell>
        <mxCell id="F2shb6BZP4cMJl0DHBAz-211" value="" style="endArrow=none;html=1;rounded=0;exitX=0;exitY=0.5;exitDx=0;exitDy=0;entryX=0.75;entryY=0;entryDx=0;entryDy=0;labelBackgroundColor=none;strokeColor=#788AA3;fontColor=default;" edge="1" parent="1" source="F2shb6BZP4cMJl0DHBAz-182" target="F2shb6BZP4cMJl0DHBAz-69">
          <mxGeometry relative="1" as="geometry">
            <mxPoint x="850" y="740" as="sourcePoint" />
            <mxPoint x="1010" y="740" as="targetPoint" />
          </mxGeometry>
        </mxCell>
        <mxCell id="F2shb6BZP4cMJl0DHBAz-212" value="N" style="resizable=0;html=1;whiteSpace=wrap;align=right;verticalAlign=bottom;labelBackgroundColor=none;fillColor=#B2C9AB;strokeColor=#788AA3;fontColor=#46495D;" connectable="0" vertex="1" parent="F2shb6BZP4cMJl0DHBAz-211">
          <mxGeometry x="1" relative="1" as="geometry" />
        </mxCell>
        <mxCell id="F2shb6BZP4cMJl0DHBAz-213" value="" style="endArrow=none;html=1;rounded=0;exitX=0;exitY=0.5;exitDx=0;exitDy=0;entryX=1;entryY=0.25;entryDx=0;entryDy=0;labelBackgroundColor=none;strokeColor=#788AA3;fontColor=default;" edge="1" parent="1" source="F2shb6BZP4cMJl0DHBAz-189" target="F2shb6BZP4cMJl0DHBAz-69">
          <mxGeometry relative="1" as="geometry">
            <mxPoint x="860" y="750" as="sourcePoint" />
            <mxPoint x="1020" y="750" as="targetPoint" />
          </mxGeometry>
        </mxCell>
        <mxCell id="F2shb6BZP4cMJl0DHBAz-214" value="N" style="resizable=0;html=1;whiteSpace=wrap;align=right;verticalAlign=bottom;labelBackgroundColor=none;fillColor=#B2C9AB;strokeColor=#788AA3;fontColor=#46495D;" connectable="0" vertex="1" parent="F2shb6BZP4cMJl0DHBAz-213">
          <mxGeometry x="1" relative="1" as="geometry" />
        </mxCell>
        <mxCell id="F2shb6BZP4cMJl0DHBAz-217" value="" style="endArrow=none;html=1;rounded=0;exitX=0.75;exitY=0;exitDx=0;exitDy=0;entryX=0;entryY=0.5;entryDx=0;entryDy=0;labelBackgroundColor=none;strokeColor=#788AA3;fontColor=default;" edge="1" parent="1" source="F2shb6BZP4cMJl0DHBAz-104" target="F2shb6BZP4cMJl0DHBAz-107">
          <mxGeometry relative="1" as="geometry">
            <mxPoint x="612.5" y="210" as="sourcePoint" />
            <mxPoint x="772.5" y="210" as="targetPoint" />
          </mxGeometry>
        </mxCell>
        <mxCell id="F2shb6BZP4cMJl0DHBAz-220" value="Has" style="shape=rhombus;perimeter=rhombusPerimeter;whiteSpace=wrap;html=1;align=center;labelBackgroundColor=none;fillColor=#B2C9AB;strokeColor=#788AA3;fontColor=#46495D;" vertex="1" parent="1">
          <mxGeometry x="430" y="300" width="120" height="60" as="geometry" />
        </mxCell>
        <mxCell id="F2shb6BZP4cMJl0DHBAz-221" value="" style="endArrow=none;html=1;rounded=0;exitX=0.5;exitY=0;exitDx=0;exitDy=0;entryX=0.75;entryY=1;entryDx=0;entryDy=0;labelBackgroundColor=none;strokeColor=#788AA3;fontColor=default;" edge="1" parent="1" source="F2shb6BZP4cMJl0DHBAz-220" target="F2shb6BZP4cMJl0DHBAz-104">
          <mxGeometry relative="1" as="geometry">
            <mxPoint x="500" y="280" as="sourcePoint" />
            <mxPoint x="660" y="280" as="targetPoint" />
          </mxGeometry>
        </mxCell>
        <mxCell id="F2shb6BZP4cMJl0DHBAz-222" value="1" style="resizable=0;html=1;whiteSpace=wrap;align=right;verticalAlign=bottom;labelBackgroundColor=none;fillColor=#B2C9AB;strokeColor=#788AA3;fontColor=#46495D;" connectable="0" vertex="1" parent="F2shb6BZP4cMJl0DHBAz-221">
          <mxGeometry x="1" relative="1" as="geometry" />
        </mxCell>
        <mxCell id="F2shb6BZP4cMJl0DHBAz-223" value="" style="endArrow=none;html=1;rounded=0;exitX=0.5;exitY=1;exitDx=0;exitDy=0;entryX=0.25;entryY=0;entryDx=0;entryDy=0;labelBackgroundColor=none;strokeColor=#788AA3;fontColor=default;" edge="1" parent="1" source="F2shb6BZP4cMJl0DHBAz-220" target="F2shb6BZP4cMJl0DHBAz-69">
          <mxGeometry relative="1" as="geometry">
            <mxPoint x="530" y="430" as="sourcePoint" />
            <mxPoint x="690" y="430" as="targetPoint" />
          </mxGeometry>
        </mxCell>
        <mxCell id="F2shb6BZP4cMJl0DHBAz-224" value="N" style="resizable=0;html=1;whiteSpace=wrap;align=right;verticalAlign=bottom;labelBackgroundColor=none;fillColor=#B2C9AB;strokeColor=#788AA3;fontColor=#46495D;" connectable="0" vertex="1" parent="F2shb6BZP4cMJl0DHBAz-223">
          <mxGeometry x="1" relative="1" as="geometry" />
        </mxCell>
        <mxCell id="F2shb6BZP4cMJl0DHBAz-226" value="Participate in" style="shape=rhombus;perimeter=rhombusPerimeter;whiteSpace=wrap;html=1;align=center;labelBackgroundColor=none;fillColor=#B2C9AB;strokeColor=#788AA3;fontColor=#46495D;" vertex="1" parent="1">
          <mxGeometry x="915" y="110" width="120" height="60" as="geometry" />
        </mxCell>
        <mxCell id="F2shb6BZP4cMJl0DHBAz-230" value="" style="endArrow=none;html=1;rounded=0;exitX=1;exitY=1;exitDx=0;exitDy=0;entryX=0.5;entryY=0;entryDx=0;entryDy=0;labelBackgroundColor=none;strokeColor=#788AA3;fontColor=default;" edge="1" parent="1" source="F2shb6BZP4cMJl0DHBAz-226" target="F2shb6BZP4cMJl0DHBAz-147">
          <mxGeometry relative="1" as="geometry">
            <mxPoint x="1090" y="220" as="sourcePoint" />
            <mxPoint x="1250" y="220" as="targetPoint" />
          </mxGeometry>
        </mxCell>
        <mxCell id="F2shb6BZP4cMJl0DHBAz-231" value="1" style="resizable=0;html=1;whiteSpace=wrap;align=right;verticalAlign=bottom;labelBackgroundColor=none;fillColor=#B2C9AB;strokeColor=#788AA3;fontColor=#46495D;" connectable="0" vertex="1" parent="F2shb6BZP4cMJl0DHBAz-230">
          <mxGeometry x="1" relative="1" as="geometry" />
        </mxCell>
        <mxCell id="F2shb6BZP4cMJl0DHBAz-232" value="" style="endArrow=none;html=1;rounded=0;exitX=0;exitY=0.5;exitDx=0;exitDy=0;entryX=1;entryY=0.75;entryDx=0;entryDy=0;labelBackgroundColor=none;strokeColor=#788AA3;fontColor=default;" edge="1" parent="1" source="F2shb6BZP4cMJl0DHBAz-226" target="F2shb6BZP4cMJl0DHBAz-104">
          <mxGeometry relative="1" as="geometry">
            <mxPoint x="680" y="170" as="sourcePoint" />
            <mxPoint x="840" y="170" as="targetPoint" />
          </mxGeometry>
        </mxCell>
        <mxCell id="F2shb6BZP4cMJl0DHBAz-233" value="N" style="resizable=0;html=1;whiteSpace=wrap;align=right;verticalAlign=bottom;labelBackgroundColor=none;fillColor=#B2C9AB;strokeColor=#788AA3;fontColor=#46495D;" connectable="0" vertex="1" parent="F2shb6BZP4cMJl0DHBAz-232">
          <mxGeometry x="1" relative="1" as="geometry" />
        </mxCell>
        <mxCell id="F2shb6BZP4cMJl0DHBAz-234" value="Has" style="shape=rhombus;perimeter=rhombusPerimeter;whiteSpace=wrap;html=1;align=center;labelBackgroundColor=none;fillColor=#B2C9AB;strokeColor=#788AA3;fontColor=#46495D;" vertex="1" parent="1">
          <mxGeometry x="275" y="260" width="120" height="60" as="geometry" />
        </mxCell>
        <mxCell id="F2shb6BZP4cMJl0DHBAz-235" value="" style="endArrow=none;html=1;rounded=0;exitX=0;exitY=0.5;exitDx=0;exitDy=0;entryX=1;entryY=0.5;entryDx=0;entryDy=0;labelBackgroundColor=none;strokeColor=#788AA3;fontColor=default;" edge="1" parent="1" source="F2shb6BZP4cMJl0DHBAz-234" target="F2shb6BZP4cMJl0DHBAz-119">
          <mxGeometry relative="1" as="geometry">
            <mxPoint x="270" y="360" as="sourcePoint" />
            <mxPoint x="430" y="360" as="targetPoint" />
          </mxGeometry>
        </mxCell>
        <mxCell id="F2shb6BZP4cMJl0DHBAz-236" value="1" style="resizable=0;html=1;whiteSpace=wrap;align=right;verticalAlign=bottom;labelBackgroundColor=none;fillColor=#B2C9AB;strokeColor=#788AA3;fontColor=#46495D;" connectable="0" vertex="1" parent="F2shb6BZP4cMJl0DHBAz-235">
          <mxGeometry x="1" relative="1" as="geometry" />
        </mxCell>
        <mxCell id="F2shb6BZP4cMJl0DHBAz-237" value="" style="endArrow=none;html=1;rounded=0;exitX=1;exitY=0.5;exitDx=0;exitDy=0;entryX=0.25;entryY=1;entryDx=0;entryDy=0;labelBackgroundColor=none;strokeColor=#788AA3;fontColor=default;" edge="1" parent="1" source="F2shb6BZP4cMJl0DHBAz-234" target="F2shb6BZP4cMJl0DHBAz-104">
          <mxGeometry relative="1" as="geometry">
            <mxPoint x="390" y="260" as="sourcePoint" />
            <mxPoint x="550" y="260" as="targetPoint" />
          </mxGeometry>
        </mxCell>
        <mxCell id="F2shb6BZP4cMJl0DHBAz-238" value="1" style="resizable=0;html=1;whiteSpace=wrap;align=right;verticalAlign=bottom;labelBackgroundColor=none;fillColor=#B2C9AB;strokeColor=#788AA3;fontColor=#46495D;" connectable="0" vertex="1" parent="F2shb6BZP4cMJl0DHBAz-237">
          <mxGeometry x="1" relative="1" as="geometry" />
        </mxCell>
        <mxCell id="F2shb6BZP4cMJl0DHBAz-239" value="Recieves" style="shape=rhombus;perimeter=rhombusPerimeter;whiteSpace=wrap;html=1;align=center;labelBackgroundColor=none;fillColor=#B2C9AB;strokeColor=#788AA3;fontColor=#46495D;" vertex="1" parent="1">
          <mxGeometry x="245" y="470" width="120" height="60" as="geometry" />
        </mxCell>
        <mxCell id="F2shb6BZP4cMJl0DHBAz-240" value="" style="endArrow=none;html=1;rounded=0;exitX=0.5;exitY=1;exitDx=0;exitDy=0;entryX=0;entryY=0;entryDx=0;entryDy=0;labelBackgroundColor=none;strokeColor=#788AA3;fontColor=default;" edge="1" parent="1" source="F2shb6BZP4cMJl0DHBAz-239" target="F2shb6BZP4cMJl0DHBAz-69">
          <mxGeometry relative="1" as="geometry">
            <mxPoint x="400" y="660" as="sourcePoint" />
            <mxPoint x="560" y="660" as="targetPoint" />
          </mxGeometry>
        </mxCell>
        <mxCell id="F2shb6BZP4cMJl0DHBAz-241" value="1" style="resizable=0;html=1;whiteSpace=wrap;align=right;verticalAlign=bottom;labelBackgroundColor=none;fillColor=#B2C9AB;strokeColor=#788AA3;fontColor=#46495D;" connectable="0" vertex="1" parent="F2shb6BZP4cMJl0DHBAz-240">
          <mxGeometry x="1" relative="1" as="geometry" />
        </mxCell>
        <mxCell id="F2shb6BZP4cMJl0DHBAz-242" value="" style="endArrow=none;html=1;rounded=0;exitX=0.5;exitY=0;exitDx=0;exitDy=0;entryX=0.5;entryY=1;entryDx=0;entryDy=0;labelBackgroundColor=none;strokeColor=#788AA3;fontColor=default;" edge="1" parent="1" source="F2shb6BZP4cMJl0DHBAz-239" target="F2shb6BZP4cMJl0DHBAz-119">
          <mxGeometry relative="1" as="geometry">
            <mxPoint x="250" y="420" as="sourcePoint" />
            <mxPoint x="410" y="420" as="targetPoint" />
          </mxGeometry>
        </mxCell>
        <mxCell id="F2shb6BZP4cMJl0DHBAz-243" value="N" style="resizable=0;html=1;whiteSpace=wrap;align=right;verticalAlign=bottom;labelBackgroundColor=none;fillColor=#B2C9AB;strokeColor=#788AA3;fontColor=#46495D;" connectable="0" vertex="1" parent="F2shb6BZP4cMJl0DHBAz-242">
          <mxGeometry x="1" relative="1" as="geometry" />
        </mxCell>
        <mxCell id="F2shb6BZP4cMJl0DHBAz-244" value="Generates" style="shape=rhombus;perimeter=rhombusPerimeter;whiteSpace=wrap;html=1;align=center;labelBackgroundColor=none;fillColor=#B2C9AB;strokeColor=#788AA3;fontColor=#46495D;" vertex="1" parent="1">
          <mxGeometry x="830" y="870" width="120" height="60" as="geometry" />
        </mxCell>
        <mxCell id="F2shb6BZP4cMJl0DHBAz-245" value="" style="endArrow=none;html=1;rounded=0;exitX=0.5;exitY=0;exitDx=0;exitDy=0;entryX=0.75;entryY=1;entryDx=0;entryDy=0;labelBackgroundColor=none;strokeColor=#788AA3;fontColor=default;" edge="1" parent="1" source="F2shb6BZP4cMJl0DHBAz-244" target="F2shb6BZP4cMJl0DHBAz-69">
          <mxGeometry relative="1" as="geometry">
            <mxPoint x="730" y="850" as="sourcePoint" />
            <mxPoint x="890" y="850" as="targetPoint" />
          </mxGeometry>
        </mxCell>
        <mxCell id="F2shb6BZP4cMJl0DHBAz-246" value="1" style="resizable=0;html=1;whiteSpace=wrap;align=right;verticalAlign=bottom;labelBackgroundColor=none;fillColor=#B2C9AB;strokeColor=#788AA3;fontColor=#46495D;" connectable="0" vertex="1" parent="F2shb6BZP4cMJl0DHBAz-245">
          <mxGeometry x="1" relative="1" as="geometry" />
        </mxCell>
        <mxCell id="F2shb6BZP4cMJl0DHBAz-249" value="" style="endArrow=none;html=1;rounded=0;exitX=0.5;exitY=1;exitDx=0;exitDy=0;entryX=0.5;entryY=0;entryDx=0;entryDy=0;labelBackgroundColor=none;strokeColor=#788AA3;fontColor=default;" edge="1" parent="1" source="F2shb6BZP4cMJl0DHBAz-244" target="F2shb6BZP4cMJl0DHBAz-136">
          <mxGeometry relative="1" as="geometry">
            <mxPoint x="950" y="940" as="sourcePoint" />
            <mxPoint x="1110" y="940" as="targetPoint" />
          </mxGeometry>
        </mxCell>
        <mxCell id="F2shb6BZP4cMJl0DHBAz-250" value="N" style="resizable=0;html=1;whiteSpace=wrap;align=right;verticalAlign=bottom;labelBackgroundColor=none;fillColor=#B2C9AB;strokeColor=#788AA3;fontColor=#46495D;" connectable="0" vertex="1" parent="F2shb6BZP4cMJl0DHBAz-249">
          <mxGeometry x="1" relative="1" as="geometry" />
        </mxCell>
      </root>
    </mxGraphModel>
  </diagram>
</mxfile>
